<mxfile host="app.diagrams.net" agent="Mozilla/5.0 (Macintosh; Intel Mac OS X 10_15_7) AppleWebKit/537.36 (KHTML, like Gecko) Chrome/131.0.0.0 Safari/537.36" version="26.0.6">
  <diagram name="ERD" id="3jPYMv1f-KOEMw5PyNdS">
    <mxGraphModel dx="1858" dy="1974" grid="1" gridSize="10" guides="1" tooltips="1" connect="1" arrows="1" fold="1" page="1" pageScale="1" pageWidth="850" pageHeight="1100" math="0" shadow="0">
      <root>
        <mxCell id="0" />
        <mxCell id="1" parent="0" />
        <mxCell id="yazkTJhVp-R8jj8HfO-j-1" value="users" style="shape=table;startSize=30;container=1;collapsible=1;childLayout=tableLayout;fixedRows=1;rowLines=0;fontStyle=1;align=center;resizeLast=1;html=1;" parent="1" vertex="1">
          <mxGeometry x="289" y="-580" width="196" height="420" as="geometry" />
        </mxCell>
        <mxCell id="yazkTJhVp-R8jj8HfO-j-2" value="" style="shape=tableRow;horizontal=0;startSize=0;swimlaneHead=0;swimlaneBody=0;fillColor=none;collapsible=0;dropTarget=0;points=[[0,0.5],[1,0.5]];portConstraint=eastwest;top=0;left=0;right=0;bottom=1;" parent="yazkTJhVp-R8jj8HfO-j-1" vertex="1">
          <mxGeometry y="30" width="196" height="30" as="geometry" />
        </mxCell>
        <mxCell id="yazkTJhVp-R8jj8HfO-j-3" value="PK" style="shape=partialRectangle;connectable=0;fillColor=none;top=0;left=0;bottom=0;right=0;fontStyle=1;overflow=hidden;whiteSpace=wrap;html=1;" parent="yazkTJhVp-R8jj8HfO-j-2" vertex="1">
          <mxGeometry width="30" height="30" as="geometry">
            <mxRectangle width="30" height="30" as="alternateBounds" />
          </mxGeometry>
        </mxCell>
        <mxCell id="yazkTJhVp-R8jj8HfO-j-4" value="id" style="shape=partialRectangle;connectable=0;fillColor=none;top=0;left=0;bottom=0;right=0;align=left;spacingLeft=6;fontStyle=5;overflow=hidden;whiteSpace=wrap;html=1;" parent="yazkTJhVp-R8jj8HfO-j-2" vertex="1">
          <mxGeometry x="30" width="166" height="30" as="geometry">
            <mxRectangle width="166" height="30" as="alternateBounds" />
          </mxGeometry>
        </mxCell>
        <mxCell id="yazkTJhVp-R8jj8HfO-j-5" value="" style="shape=tableRow;horizontal=0;startSize=0;swimlaneHead=0;swimlaneBody=0;fillColor=none;collapsible=0;dropTarget=0;points=[[0,0.5],[1,0.5]];portConstraint=eastwest;top=0;left=0;right=0;bottom=0;" parent="yazkTJhVp-R8jj8HfO-j-1" vertex="1">
          <mxGeometry y="60" width="196" height="30" as="geometry" />
        </mxCell>
        <mxCell id="yazkTJhVp-R8jj8HfO-j-6" value="" style="shape=partialRectangle;connectable=0;fillColor=none;top=0;left=0;bottom=0;right=0;editable=1;overflow=hidden;whiteSpace=wrap;html=1;" parent="yazkTJhVp-R8jj8HfO-j-5" vertex="1">
          <mxGeometry width="30" height="30" as="geometry">
            <mxRectangle width="30" height="30" as="alternateBounds" />
          </mxGeometry>
        </mxCell>
        <mxCell id="yazkTJhVp-R8jj8HfO-j-7" value="firstName" style="shape=partialRectangle;connectable=0;fillColor=none;top=0;left=0;bottom=0;right=0;align=left;spacingLeft=6;overflow=hidden;whiteSpace=wrap;html=1;" parent="yazkTJhVp-R8jj8HfO-j-5" vertex="1">
          <mxGeometry x="30" width="166" height="30" as="geometry">
            <mxRectangle width="166" height="30" as="alternateBounds" />
          </mxGeometry>
        </mxCell>
        <mxCell id="yazkTJhVp-R8jj8HfO-j-8" value="" style="shape=tableRow;horizontal=0;startSize=0;swimlaneHead=0;swimlaneBody=0;fillColor=none;collapsible=0;dropTarget=0;points=[[0,0.5],[1,0.5]];portConstraint=eastwest;top=0;left=0;right=0;bottom=0;" parent="yazkTJhVp-R8jj8HfO-j-1" vertex="1">
          <mxGeometry y="90" width="196" height="30" as="geometry" />
        </mxCell>
        <mxCell id="yazkTJhVp-R8jj8HfO-j-9" value="" style="shape=partialRectangle;connectable=0;fillColor=none;top=0;left=0;bottom=0;right=0;editable=1;overflow=hidden;whiteSpace=wrap;html=1;" parent="yazkTJhVp-R8jj8HfO-j-8" vertex="1">
          <mxGeometry width="30" height="30" as="geometry">
            <mxRectangle width="30" height="30" as="alternateBounds" />
          </mxGeometry>
        </mxCell>
        <mxCell id="yazkTJhVp-R8jj8HfO-j-10" value="lastName" style="shape=partialRectangle;connectable=0;fillColor=none;top=0;left=0;bottom=0;right=0;align=left;spacingLeft=6;overflow=hidden;whiteSpace=wrap;html=1;" parent="yazkTJhVp-R8jj8HfO-j-8" vertex="1">
          <mxGeometry x="30" width="166" height="30" as="geometry">
            <mxRectangle width="166" height="30" as="alternateBounds" />
          </mxGeometry>
        </mxCell>
        <mxCell id="yazkTJhVp-R8jj8HfO-j-11" value="" style="shape=tableRow;horizontal=0;startSize=0;swimlaneHead=0;swimlaneBody=0;fillColor=none;collapsible=0;dropTarget=0;points=[[0,0.5],[1,0.5]];portConstraint=eastwest;top=0;left=0;right=0;bottom=0;" parent="yazkTJhVp-R8jj8HfO-j-1" vertex="1">
          <mxGeometry y="120" width="196" height="30" as="geometry" />
        </mxCell>
        <mxCell id="yazkTJhVp-R8jj8HfO-j-12" value="" style="shape=partialRectangle;connectable=0;fillColor=none;top=0;left=0;bottom=0;right=0;editable=1;overflow=hidden;whiteSpace=wrap;html=1;" parent="yazkTJhVp-R8jj8HfO-j-11" vertex="1">
          <mxGeometry width="30" height="30" as="geometry">
            <mxRectangle width="30" height="30" as="alternateBounds" />
          </mxGeometry>
        </mxCell>
        <mxCell id="yazkTJhVp-R8jj8HfO-j-13" value="email" style="shape=partialRectangle;connectable=0;fillColor=none;top=0;left=0;bottom=0;right=0;align=left;spacingLeft=6;overflow=hidden;whiteSpace=wrap;html=1;" parent="yazkTJhVp-R8jj8HfO-j-11" vertex="1">
          <mxGeometry x="30" width="166" height="30" as="geometry">
            <mxRectangle width="166" height="30" as="alternateBounds" />
          </mxGeometry>
        </mxCell>
        <mxCell id="yazkTJhVp-R8jj8HfO-j-40" style="shape=tableRow;horizontal=0;startSize=0;swimlaneHead=0;swimlaneBody=0;fillColor=none;collapsible=0;dropTarget=0;points=[[0,0.5],[1,0.5]];portConstraint=eastwest;top=0;left=0;right=0;bottom=0;" parent="yazkTJhVp-R8jj8HfO-j-1" vertex="1">
          <mxGeometry y="150" width="196" height="30" as="geometry" />
        </mxCell>
        <mxCell id="yazkTJhVp-R8jj8HfO-j-41" style="shape=partialRectangle;connectable=0;fillColor=none;top=0;left=0;bottom=0;right=0;editable=1;overflow=hidden;whiteSpace=wrap;html=1;" parent="yazkTJhVp-R8jj8HfO-j-40" vertex="1">
          <mxGeometry width="30" height="30" as="geometry">
            <mxRectangle width="30" height="30" as="alternateBounds" />
          </mxGeometry>
        </mxCell>
        <mxCell id="yazkTJhVp-R8jj8HfO-j-42" value="phone" style="shape=partialRectangle;connectable=0;fillColor=none;top=0;left=0;bottom=0;right=0;align=left;spacingLeft=6;overflow=hidden;whiteSpace=wrap;html=1;" parent="yazkTJhVp-R8jj8HfO-j-40" vertex="1">
          <mxGeometry x="30" width="166" height="30" as="geometry">
            <mxRectangle width="166" height="30" as="alternateBounds" />
          </mxGeometry>
        </mxCell>
        <mxCell id="yazkTJhVp-R8jj8HfO-j-43" style="shape=tableRow;horizontal=0;startSize=0;swimlaneHead=0;swimlaneBody=0;fillColor=none;collapsible=0;dropTarget=0;points=[[0,0.5],[1,0.5]];portConstraint=eastwest;top=0;left=0;right=0;bottom=0;" parent="yazkTJhVp-R8jj8HfO-j-1" vertex="1">
          <mxGeometry y="180" width="196" height="30" as="geometry" />
        </mxCell>
        <mxCell id="yazkTJhVp-R8jj8HfO-j-44" style="shape=partialRectangle;connectable=0;fillColor=none;top=0;left=0;bottom=0;right=0;editable=1;overflow=hidden;whiteSpace=wrap;html=1;" parent="yazkTJhVp-R8jj8HfO-j-43" vertex="1">
          <mxGeometry width="30" height="30" as="geometry">
            <mxRectangle width="30" height="30" as="alternateBounds" />
          </mxGeometry>
        </mxCell>
        <mxCell id="yazkTJhVp-R8jj8HfO-j-45" value="address" style="shape=partialRectangle;connectable=0;fillColor=none;top=0;left=0;bottom=0;right=0;align=left;spacingLeft=6;overflow=hidden;whiteSpace=wrap;html=1;" parent="yazkTJhVp-R8jj8HfO-j-43" vertex="1">
          <mxGeometry x="30" width="166" height="30" as="geometry">
            <mxRectangle width="166" height="30" as="alternateBounds" />
          </mxGeometry>
        </mxCell>
        <mxCell id="_ogGYtfBmzfV-9HcHeYj-31" style="shape=tableRow;horizontal=0;startSize=0;swimlaneHead=0;swimlaneBody=0;fillColor=none;collapsible=0;dropTarget=0;points=[[0,0.5],[1,0.5]];portConstraint=eastwest;top=0;left=0;right=0;bottom=0;" parent="yazkTJhVp-R8jj8HfO-j-1" vertex="1">
          <mxGeometry y="210" width="196" height="30" as="geometry" />
        </mxCell>
        <mxCell id="_ogGYtfBmzfV-9HcHeYj-32" style="shape=partialRectangle;connectable=0;fillColor=none;top=0;left=0;bottom=0;right=0;editable=1;overflow=hidden;whiteSpace=wrap;html=1;" parent="_ogGYtfBmzfV-9HcHeYj-31" vertex="1">
          <mxGeometry width="30" height="30" as="geometry">
            <mxRectangle width="30" height="30" as="alternateBounds" />
          </mxGeometry>
        </mxCell>
        <mxCell id="_ogGYtfBmzfV-9HcHeYj-33" value="password" style="shape=partialRectangle;connectable=0;fillColor=none;top=0;left=0;bottom=0;right=0;align=left;spacingLeft=6;overflow=hidden;whiteSpace=wrap;html=1;" parent="_ogGYtfBmzfV-9HcHeYj-31" vertex="1">
          <mxGeometry x="30" width="166" height="30" as="geometry">
            <mxRectangle width="166" height="30" as="alternateBounds" />
          </mxGeometry>
        </mxCell>
        <mxCell id="_ogGYtfBmzfV-9HcHeYj-28" style="shape=tableRow;horizontal=0;startSize=0;swimlaneHead=0;swimlaneBody=0;fillColor=none;collapsible=0;dropTarget=0;points=[[0,0.5],[1,0.5]];portConstraint=eastwest;top=0;left=0;right=0;bottom=0;" parent="yazkTJhVp-R8jj8HfO-j-1" vertex="1">
          <mxGeometry y="240" width="196" height="30" as="geometry" />
        </mxCell>
        <mxCell id="_ogGYtfBmzfV-9HcHeYj-29" style="shape=partialRectangle;connectable=0;fillColor=none;top=0;left=0;bottom=0;right=0;editable=1;overflow=hidden;whiteSpace=wrap;html=1;" parent="_ogGYtfBmzfV-9HcHeYj-28" vertex="1">
          <mxGeometry width="30" height="30" as="geometry">
            <mxRectangle width="30" height="30" as="alternateBounds" />
          </mxGeometry>
        </mxCell>
        <mxCell id="_ogGYtfBmzfV-9HcHeYj-30" value="lastLogin" style="shape=partialRectangle;connectable=0;fillColor=none;top=0;left=0;bottom=0;right=0;align=left;spacingLeft=6;overflow=hidden;whiteSpace=wrap;html=1;" parent="_ogGYtfBmzfV-9HcHeYj-28" vertex="1">
          <mxGeometry x="30" width="166" height="30" as="geometry">
            <mxRectangle width="166" height="30" as="alternateBounds" />
          </mxGeometry>
        </mxCell>
        <mxCell id="yazkTJhVp-R8jj8HfO-j-55" style="shape=tableRow;horizontal=0;startSize=0;swimlaneHead=0;swimlaneBody=0;fillColor=none;collapsible=0;dropTarget=0;points=[[0,0.5],[1,0.5]];portConstraint=eastwest;top=0;left=0;right=0;bottom=0;" parent="yazkTJhVp-R8jj8HfO-j-1" vertex="1">
          <mxGeometry y="270" width="196" height="30" as="geometry" />
        </mxCell>
        <mxCell id="yazkTJhVp-R8jj8HfO-j-56" style="shape=partialRectangle;connectable=0;fillColor=none;top=0;left=0;bottom=0;right=0;editable=1;overflow=hidden;whiteSpace=wrap;html=1;" parent="yazkTJhVp-R8jj8HfO-j-55" vertex="1">
          <mxGeometry width="30" height="30" as="geometry">
            <mxRectangle width="30" height="30" as="alternateBounds" />
          </mxGeometry>
        </mxCell>
        <mxCell id="yazkTJhVp-R8jj8HfO-j-57" value="role" style="shape=partialRectangle;connectable=0;fillColor=none;top=0;left=0;bottom=0;right=0;align=left;spacingLeft=6;overflow=hidden;whiteSpace=wrap;html=1;" parent="yazkTJhVp-R8jj8HfO-j-55" vertex="1">
          <mxGeometry x="30" width="166" height="30" as="geometry">
            <mxRectangle width="166" height="30" as="alternateBounds" />
          </mxGeometry>
        </mxCell>
        <mxCell id="yazkTJhVp-R8jj8HfO-j-118" style="shape=tableRow;horizontal=0;startSize=0;swimlaneHead=0;swimlaneBody=0;fillColor=none;collapsible=0;dropTarget=0;points=[[0,0.5],[1,0.5]];portConstraint=eastwest;top=0;left=0;right=0;bottom=0;" parent="yazkTJhVp-R8jj8HfO-j-1" vertex="1">
          <mxGeometry y="300" width="196" height="30" as="geometry" />
        </mxCell>
        <mxCell id="yazkTJhVp-R8jj8HfO-j-119" value="&lt;b&gt;FK&lt;/b&gt;" style="shape=partialRectangle;connectable=0;fillColor=none;top=0;left=0;bottom=0;right=0;editable=1;overflow=hidden;whiteSpace=wrap;html=1;" parent="yazkTJhVp-R8jj8HfO-j-118" vertex="1">
          <mxGeometry width="30" height="30" as="geometry">
            <mxRectangle width="30" height="30" as="alternateBounds" />
          </mxGeometry>
        </mxCell>
        <mxCell id="yazkTJhVp-R8jj8HfO-j-120" value="groupId (for student role)" style="shape=partialRectangle;connectable=0;fillColor=none;top=0;left=0;bottom=0;right=0;align=left;spacingLeft=6;overflow=hidden;whiteSpace=wrap;html=1;" parent="yazkTJhVp-R8jj8HfO-j-118" vertex="1">
          <mxGeometry x="30" width="166" height="30" as="geometry">
            <mxRectangle width="166" height="30" as="alternateBounds" />
          </mxGeometry>
        </mxCell>
        <mxCell id="er9iYGzfPaZmdrmK8T5j-1" style="shape=tableRow;horizontal=0;startSize=0;swimlaneHead=0;swimlaneBody=0;fillColor=none;collapsible=0;dropTarget=0;points=[[0,0.5],[1,0.5]];portConstraint=eastwest;top=0;left=0;right=0;bottom=0;" vertex="1" parent="yazkTJhVp-R8jj8HfO-j-1">
          <mxGeometry y="330" width="196" height="30" as="geometry" />
        </mxCell>
        <mxCell id="er9iYGzfPaZmdrmK8T5j-2" value="&lt;b&gt;FK&lt;/b&gt;" style="shape=partialRectangle;connectable=0;fillColor=none;top=0;left=0;bottom=0;right=0;editable=1;overflow=hidden;whiteSpace=wrap;html=1;" vertex="1" parent="er9iYGzfPaZmdrmK8T5j-1">
          <mxGeometry width="30" height="30" as="geometry">
            <mxRectangle width="30" height="30" as="alternateBounds" />
          </mxGeometry>
        </mxCell>
        <mxCell id="er9iYGzfPaZmdrmK8T5j-3" value="moduleId (for teacher role)" style="shape=partialRectangle;connectable=0;fillColor=none;top=0;left=0;bottom=0;right=0;align=left;spacingLeft=6;overflow=hidden;whiteSpace=wrap;html=1;" vertex="1" parent="er9iYGzfPaZmdrmK8T5j-1">
          <mxGeometry x="30" width="166" height="30" as="geometry">
            <mxRectangle width="166" height="30" as="alternateBounds" />
          </mxGeometry>
        </mxCell>
        <mxCell id="yazkTJhVp-R8jj8HfO-j-46" style="shape=tableRow;horizontal=0;startSize=0;swimlaneHead=0;swimlaneBody=0;fillColor=none;collapsible=0;dropTarget=0;points=[[0,0.5],[1,0.5]];portConstraint=eastwest;top=0;left=0;right=0;bottom=0;" parent="yazkTJhVp-R8jj8HfO-j-1" vertex="1">
          <mxGeometry y="360" width="196" height="30" as="geometry" />
        </mxCell>
        <mxCell id="yazkTJhVp-R8jj8HfO-j-47" style="shape=partialRectangle;connectable=0;fillColor=none;top=0;left=0;bottom=0;right=0;editable=1;overflow=hidden;whiteSpace=wrap;html=1;" parent="yazkTJhVp-R8jj8HfO-j-46" vertex="1">
          <mxGeometry width="30" height="30" as="geometry">
            <mxRectangle width="30" height="30" as="alternateBounds" />
          </mxGeometry>
        </mxCell>
        <mxCell id="yazkTJhVp-R8jj8HfO-j-48" value="createdAt" style="shape=partialRectangle;connectable=0;fillColor=none;top=0;left=0;bottom=0;right=0;align=left;spacingLeft=6;overflow=hidden;whiteSpace=wrap;html=1;" parent="yazkTJhVp-R8jj8HfO-j-46" vertex="1">
          <mxGeometry x="30" width="166" height="30" as="geometry">
            <mxRectangle width="166" height="30" as="alternateBounds" />
          </mxGeometry>
        </mxCell>
        <mxCell id="yazkTJhVp-R8jj8HfO-j-49" style="shape=tableRow;horizontal=0;startSize=0;swimlaneHead=0;swimlaneBody=0;fillColor=none;collapsible=0;dropTarget=0;points=[[0,0.5],[1,0.5]];portConstraint=eastwest;top=0;left=0;right=0;bottom=0;" parent="yazkTJhVp-R8jj8HfO-j-1" vertex="1">
          <mxGeometry y="390" width="196" height="30" as="geometry" />
        </mxCell>
        <mxCell id="yazkTJhVp-R8jj8HfO-j-50" style="shape=partialRectangle;connectable=0;fillColor=none;top=0;left=0;bottom=0;right=0;editable=1;overflow=hidden;whiteSpace=wrap;html=1;" parent="yazkTJhVp-R8jj8HfO-j-49" vertex="1">
          <mxGeometry width="30" height="30" as="geometry">
            <mxRectangle width="30" height="30" as="alternateBounds" />
          </mxGeometry>
        </mxCell>
        <mxCell id="yazkTJhVp-R8jj8HfO-j-51" value="updatedAt" style="shape=partialRectangle;connectable=0;fillColor=none;top=0;left=0;bottom=0;right=0;align=left;spacingLeft=6;overflow=hidden;whiteSpace=wrap;html=1;" parent="yazkTJhVp-R8jj8HfO-j-49" vertex="1">
          <mxGeometry x="30" width="166" height="30" as="geometry">
            <mxRectangle width="166" height="30" as="alternateBounds" />
          </mxGeometry>
        </mxCell>
        <mxCell id="yazkTJhVp-R8jj8HfO-j-14" value="classes" style="shape=table;startSize=30;container=1;collapsible=1;childLayout=tableLayout;fixedRows=1;rowLines=0;fontStyle=1;align=center;resizeLast=1;html=1;" parent="1" vertex="1">
          <mxGeometry x="564.5" y="-820" width="160.5" height="270" as="geometry" />
        </mxCell>
        <mxCell id="yazkTJhVp-R8jj8HfO-j-15" value="" style="shape=tableRow;horizontal=0;startSize=0;swimlaneHead=0;swimlaneBody=0;fillColor=none;collapsible=0;dropTarget=0;points=[[0,0.5],[1,0.5]];portConstraint=eastwest;top=0;left=0;right=0;bottom=1;" parent="yazkTJhVp-R8jj8HfO-j-14" vertex="1">
          <mxGeometry y="30" width="160.5" height="30" as="geometry" />
        </mxCell>
        <mxCell id="yazkTJhVp-R8jj8HfO-j-16" value="PK" style="shape=partialRectangle;connectable=0;fillColor=none;top=0;left=0;bottom=0;right=0;fontStyle=1;overflow=hidden;whiteSpace=wrap;html=1;" parent="yazkTJhVp-R8jj8HfO-j-15" vertex="1">
          <mxGeometry width="30" height="30" as="geometry">
            <mxRectangle width="30" height="30" as="alternateBounds" />
          </mxGeometry>
        </mxCell>
        <mxCell id="yazkTJhVp-R8jj8HfO-j-17" value="id" style="shape=partialRectangle;connectable=0;fillColor=none;top=0;left=0;bottom=0;right=0;align=left;spacingLeft=6;fontStyle=5;overflow=hidden;whiteSpace=wrap;html=1;" parent="yazkTJhVp-R8jj8HfO-j-15" vertex="1">
          <mxGeometry x="30" width="130.5" height="30" as="geometry">
            <mxRectangle width="130.5" height="30" as="alternateBounds" />
          </mxGeometry>
        </mxCell>
        <mxCell id="yazkTJhVp-R8jj8HfO-j-21" value="" style="shape=tableRow;horizontal=0;startSize=0;swimlaneHead=0;swimlaneBody=0;fillColor=none;collapsible=0;dropTarget=0;points=[[0,0.5],[1,0.5]];portConstraint=eastwest;top=0;left=0;right=0;bottom=0;" parent="yazkTJhVp-R8jj8HfO-j-14" vertex="1">
          <mxGeometry y="60" width="160.5" height="30" as="geometry" />
        </mxCell>
        <mxCell id="yazkTJhVp-R8jj8HfO-j-22" value="" style="shape=partialRectangle;connectable=0;fillColor=none;top=0;left=0;bottom=0;right=0;editable=1;overflow=hidden;whiteSpace=wrap;html=1;" parent="yazkTJhVp-R8jj8HfO-j-21" vertex="1">
          <mxGeometry width="30" height="30" as="geometry">
            <mxRectangle width="30" height="30" as="alternateBounds" />
          </mxGeometry>
        </mxCell>
        <mxCell id="yazkTJhVp-R8jj8HfO-j-23" value="date" style="shape=partialRectangle;connectable=0;fillColor=none;top=0;left=0;bottom=0;right=0;align=left;spacingLeft=6;overflow=hidden;whiteSpace=wrap;html=1;" parent="yazkTJhVp-R8jj8HfO-j-21" vertex="1">
          <mxGeometry x="30" width="130.5" height="30" as="geometry">
            <mxRectangle width="130.5" height="30" as="alternateBounds" />
          </mxGeometry>
        </mxCell>
        <mxCell id="yazkTJhVp-R8jj8HfO-j-24" value="" style="shape=tableRow;horizontal=0;startSize=0;swimlaneHead=0;swimlaneBody=0;fillColor=none;collapsible=0;dropTarget=0;points=[[0,0.5],[1,0.5]];portConstraint=eastwest;top=0;left=0;right=0;bottom=0;" parent="yazkTJhVp-R8jj8HfO-j-14" vertex="1">
          <mxGeometry y="90" width="160.5" height="30" as="geometry" />
        </mxCell>
        <mxCell id="yazkTJhVp-R8jj8HfO-j-25" value="" style="shape=partialRectangle;connectable=0;fillColor=none;top=0;left=0;bottom=0;right=0;editable=1;overflow=hidden;whiteSpace=wrap;html=1;" parent="yazkTJhVp-R8jj8HfO-j-24" vertex="1">
          <mxGeometry width="30" height="30" as="geometry">
            <mxRectangle width="30" height="30" as="alternateBounds" />
          </mxGeometry>
        </mxCell>
        <mxCell id="yazkTJhVp-R8jj8HfO-j-26" value="startTime" style="shape=partialRectangle;connectable=0;fillColor=none;top=0;left=0;bottom=0;right=0;align=left;spacingLeft=6;overflow=hidden;whiteSpace=wrap;html=1;" parent="yazkTJhVp-R8jj8HfO-j-24" vertex="1">
          <mxGeometry x="30" width="130.5" height="30" as="geometry">
            <mxRectangle width="130.5" height="30" as="alternateBounds" />
          </mxGeometry>
        </mxCell>
        <mxCell id="_ogGYtfBmzfV-9HcHeYj-34" style="shape=tableRow;horizontal=0;startSize=0;swimlaneHead=0;swimlaneBody=0;fillColor=none;collapsible=0;dropTarget=0;points=[[0,0.5],[1,0.5]];portConstraint=eastwest;top=0;left=0;right=0;bottom=0;" parent="yazkTJhVp-R8jj8HfO-j-14" vertex="1">
          <mxGeometry y="120" width="160.5" height="30" as="geometry" />
        </mxCell>
        <mxCell id="_ogGYtfBmzfV-9HcHeYj-35" style="shape=partialRectangle;connectable=0;fillColor=none;top=0;left=0;bottom=0;right=0;editable=1;overflow=hidden;whiteSpace=wrap;html=1;" parent="_ogGYtfBmzfV-9HcHeYj-34" vertex="1">
          <mxGeometry width="30" height="30" as="geometry">
            <mxRectangle width="30" height="30" as="alternateBounds" />
          </mxGeometry>
        </mxCell>
        <mxCell id="_ogGYtfBmzfV-9HcHeYj-36" value="endTime" style="shape=partialRectangle;connectable=0;fillColor=none;top=0;left=0;bottom=0;right=0;align=left;spacingLeft=6;overflow=hidden;whiteSpace=wrap;html=1;" parent="_ogGYtfBmzfV-9HcHeYj-34" vertex="1">
          <mxGeometry x="30" width="130.5" height="30" as="geometry">
            <mxRectangle width="130.5" height="30" as="alternateBounds" />
          </mxGeometry>
        </mxCell>
        <mxCell id="yazkTJhVp-R8jj8HfO-j-150" style="shape=tableRow;horizontal=0;startSize=0;swimlaneHead=0;swimlaneBody=0;fillColor=none;collapsible=0;dropTarget=0;points=[[0,0.5],[1,0.5]];portConstraint=eastwest;top=0;left=0;right=0;bottom=0;" parent="yazkTJhVp-R8jj8HfO-j-14" vertex="1">
          <mxGeometry y="150" width="160.5" height="30" as="geometry" />
        </mxCell>
        <mxCell id="yazkTJhVp-R8jj8HfO-j-151" value="&lt;b&gt;FK&lt;/b&gt;" style="shape=partialRectangle;connectable=0;fillColor=none;top=0;left=0;bottom=0;right=0;editable=1;overflow=hidden;whiteSpace=wrap;html=1;" parent="yazkTJhVp-R8jj8HfO-j-150" vertex="1">
          <mxGeometry width="30" height="30" as="geometry">
            <mxRectangle width="30" height="30" as="alternateBounds" />
          </mxGeometry>
        </mxCell>
        <mxCell id="yazkTJhVp-R8jj8HfO-j-152" value="teacherId" style="shape=partialRectangle;connectable=0;fillColor=none;top=0;left=0;bottom=0;right=0;align=left;spacingLeft=6;overflow=hidden;whiteSpace=wrap;html=1;" parent="yazkTJhVp-R8jj8HfO-j-150" vertex="1">
          <mxGeometry x="30" width="130.5" height="30" as="geometry">
            <mxRectangle width="130.5" height="30" as="alternateBounds" />
          </mxGeometry>
        </mxCell>
        <mxCell id="yazkTJhVp-R8jj8HfO-j-147" style="shape=tableRow;horizontal=0;startSize=0;swimlaneHead=0;swimlaneBody=0;fillColor=none;collapsible=0;dropTarget=0;points=[[0,0.5],[1,0.5]];portConstraint=eastwest;top=0;left=0;right=0;bottom=0;" parent="yazkTJhVp-R8jj8HfO-j-14" vertex="1">
          <mxGeometry y="180" width="160.5" height="30" as="geometry" />
        </mxCell>
        <mxCell id="yazkTJhVp-R8jj8HfO-j-148" value="&lt;b&gt;FK&lt;/b&gt;" style="shape=partialRectangle;connectable=0;fillColor=none;top=0;left=0;bottom=0;right=0;editable=1;overflow=hidden;whiteSpace=wrap;html=1;" parent="yazkTJhVp-R8jj8HfO-j-147" vertex="1">
          <mxGeometry width="30" height="30" as="geometry">
            <mxRectangle width="30" height="30" as="alternateBounds" />
          </mxGeometry>
        </mxCell>
        <mxCell id="yazkTJhVp-R8jj8HfO-j-149" value="groupId" style="shape=partialRectangle;connectable=0;fillColor=none;top=0;left=0;bottom=0;right=0;align=left;spacingLeft=6;overflow=hidden;whiteSpace=wrap;html=1;" parent="yazkTJhVp-R8jj8HfO-j-147" vertex="1">
          <mxGeometry x="30" width="130.5" height="30" as="geometry">
            <mxRectangle width="130.5" height="30" as="alternateBounds" />
          </mxGeometry>
        </mxCell>
        <mxCell id="yazkTJhVp-R8jj8HfO-j-58" style="shape=tableRow;horizontal=0;startSize=0;swimlaneHead=0;swimlaneBody=0;fillColor=none;collapsible=0;dropTarget=0;points=[[0,0.5],[1,0.5]];portConstraint=eastwest;top=0;left=0;right=0;bottom=0;" parent="yazkTJhVp-R8jj8HfO-j-14" vertex="1">
          <mxGeometry y="210" width="160.5" height="30" as="geometry" />
        </mxCell>
        <mxCell id="yazkTJhVp-R8jj8HfO-j-59" style="shape=partialRectangle;connectable=0;fillColor=none;top=0;left=0;bottom=0;right=0;editable=1;overflow=hidden;whiteSpace=wrap;html=1;" parent="yazkTJhVp-R8jj8HfO-j-58" vertex="1">
          <mxGeometry width="30" height="30" as="geometry">
            <mxRectangle width="30" height="30" as="alternateBounds" />
          </mxGeometry>
        </mxCell>
        <mxCell id="yazkTJhVp-R8jj8HfO-j-60" value="createdAt" style="shape=partialRectangle;connectable=0;fillColor=none;top=0;left=0;bottom=0;right=0;align=left;spacingLeft=6;overflow=hidden;whiteSpace=wrap;html=1;" parent="yazkTJhVp-R8jj8HfO-j-58" vertex="1">
          <mxGeometry x="30" width="130.5" height="30" as="geometry">
            <mxRectangle width="130.5" height="30" as="alternateBounds" />
          </mxGeometry>
        </mxCell>
        <mxCell id="yazkTJhVp-R8jj8HfO-j-61" style="shape=tableRow;horizontal=0;startSize=0;swimlaneHead=0;swimlaneBody=0;fillColor=none;collapsible=0;dropTarget=0;points=[[0,0.5],[1,0.5]];portConstraint=eastwest;top=0;left=0;right=0;bottom=0;" parent="yazkTJhVp-R8jj8HfO-j-14" vertex="1">
          <mxGeometry y="240" width="160.5" height="30" as="geometry" />
        </mxCell>
        <mxCell id="yazkTJhVp-R8jj8HfO-j-62" style="shape=partialRectangle;connectable=0;fillColor=none;top=0;left=0;bottom=0;right=0;editable=1;overflow=hidden;whiteSpace=wrap;html=1;" parent="yazkTJhVp-R8jj8HfO-j-61" vertex="1">
          <mxGeometry width="30" height="30" as="geometry">
            <mxRectangle width="30" height="30" as="alternateBounds" />
          </mxGeometry>
        </mxCell>
        <mxCell id="yazkTJhVp-R8jj8HfO-j-63" value="updatedAt" style="shape=partialRectangle;connectable=0;fillColor=none;top=0;left=0;bottom=0;right=0;align=left;spacingLeft=6;overflow=hidden;whiteSpace=wrap;html=1;" parent="yazkTJhVp-R8jj8HfO-j-61" vertex="1">
          <mxGeometry x="30" width="130.5" height="30" as="geometry">
            <mxRectangle width="130.5" height="30" as="alternateBounds" />
          </mxGeometry>
        </mxCell>
        <mxCell id="yazkTJhVp-R8jj8HfO-j-64" value="modules" style="shape=table;startSize=30;container=1;collapsible=1;childLayout=tableLayout;fixedRows=1;rowLines=0;fontStyle=1;align=center;resizeLast=1;html=1;" parent="1" vertex="1">
          <mxGeometry x="568" y="-280" width="150" height="210" as="geometry" />
        </mxCell>
        <mxCell id="yazkTJhVp-R8jj8HfO-j-65" value="" style="shape=tableRow;horizontal=0;startSize=0;swimlaneHead=0;swimlaneBody=0;fillColor=none;collapsible=0;dropTarget=0;points=[[0,0.5],[1,0.5]];portConstraint=eastwest;top=0;left=0;right=0;bottom=1;" parent="yazkTJhVp-R8jj8HfO-j-64" vertex="1">
          <mxGeometry y="30" width="150" height="30" as="geometry" />
        </mxCell>
        <mxCell id="yazkTJhVp-R8jj8HfO-j-66" value="PK" style="shape=partialRectangle;connectable=0;fillColor=none;top=0;left=0;bottom=0;right=0;fontStyle=1;overflow=hidden;whiteSpace=wrap;html=1;" parent="yazkTJhVp-R8jj8HfO-j-65" vertex="1">
          <mxGeometry width="30" height="30" as="geometry">
            <mxRectangle width="30" height="30" as="alternateBounds" />
          </mxGeometry>
        </mxCell>
        <mxCell id="yazkTJhVp-R8jj8HfO-j-67" value="id" style="shape=partialRectangle;connectable=0;fillColor=none;top=0;left=0;bottom=0;right=0;align=left;spacingLeft=6;fontStyle=5;overflow=hidden;whiteSpace=wrap;html=1;" parent="yazkTJhVp-R8jj8HfO-j-65" vertex="1">
          <mxGeometry x="30" width="120" height="30" as="geometry">
            <mxRectangle width="120" height="30" as="alternateBounds" />
          </mxGeometry>
        </mxCell>
        <mxCell id="yazkTJhVp-R8jj8HfO-j-68" value="" style="shape=tableRow;horizontal=0;startSize=0;swimlaneHead=0;swimlaneBody=0;fillColor=none;collapsible=0;dropTarget=0;points=[[0,0.5],[1,0.5]];portConstraint=eastwest;top=0;left=0;right=0;bottom=0;" parent="yazkTJhVp-R8jj8HfO-j-64" vertex="1">
          <mxGeometry y="60" width="150" height="30" as="geometry" />
        </mxCell>
        <mxCell id="yazkTJhVp-R8jj8HfO-j-69" value="&lt;b&gt;FK&lt;/b&gt;" style="shape=partialRectangle;connectable=0;fillColor=none;top=0;left=0;bottom=0;right=0;editable=1;overflow=hidden;whiteSpace=wrap;html=1;" parent="yazkTJhVp-R8jj8HfO-j-68" vertex="1">
          <mxGeometry width="30" height="30" as="geometry">
            <mxRectangle width="30" height="30" as="alternateBounds" />
          </mxGeometry>
        </mxCell>
        <mxCell id="yazkTJhVp-R8jj8HfO-j-70" value="programId" style="shape=partialRectangle;connectable=0;fillColor=none;top=0;left=0;bottom=0;right=0;align=left;spacingLeft=6;overflow=hidden;whiteSpace=wrap;html=1;" parent="yazkTJhVp-R8jj8HfO-j-68" vertex="1">
          <mxGeometry x="30" width="120" height="30" as="geometry">
            <mxRectangle width="120" height="30" as="alternateBounds" />
          </mxGeometry>
        </mxCell>
        <mxCell id="yazkTJhVp-R8jj8HfO-j-71" value="" style="shape=tableRow;horizontal=0;startSize=0;swimlaneHead=0;swimlaneBody=0;fillColor=none;collapsible=0;dropTarget=0;points=[[0,0.5],[1,0.5]];portConstraint=eastwest;top=0;left=0;right=0;bottom=0;" parent="yazkTJhVp-R8jj8HfO-j-64" vertex="1">
          <mxGeometry y="90" width="150" height="30" as="geometry" />
        </mxCell>
        <mxCell id="yazkTJhVp-R8jj8HfO-j-72" value="" style="shape=partialRectangle;connectable=0;fillColor=none;top=0;left=0;bottom=0;right=0;editable=1;overflow=hidden;whiteSpace=wrap;html=1;" parent="yazkTJhVp-R8jj8HfO-j-71" vertex="1">
          <mxGeometry width="30" height="30" as="geometry">
            <mxRectangle width="30" height="30" as="alternateBounds" />
          </mxGeometry>
        </mxCell>
        <mxCell id="yazkTJhVp-R8jj8HfO-j-73" value="name" style="shape=partialRectangle;connectable=0;fillColor=none;top=0;left=0;bottom=0;right=0;align=left;spacingLeft=6;overflow=hidden;whiteSpace=wrap;html=1;" parent="yazkTJhVp-R8jj8HfO-j-71" vertex="1">
          <mxGeometry x="30" width="120" height="30" as="geometry">
            <mxRectangle width="120" height="30" as="alternateBounds" />
          </mxGeometry>
        </mxCell>
        <mxCell id="yazkTJhVp-R8jj8HfO-j-74" value="" style="shape=tableRow;horizontal=0;startSize=0;swimlaneHead=0;swimlaneBody=0;fillColor=none;collapsible=0;dropTarget=0;points=[[0,0.5],[1,0.5]];portConstraint=eastwest;top=0;left=0;right=0;bottom=0;" parent="yazkTJhVp-R8jj8HfO-j-64" vertex="1">
          <mxGeometry y="120" width="150" height="30" as="geometry" />
        </mxCell>
        <mxCell id="yazkTJhVp-R8jj8HfO-j-75" value="" style="shape=partialRectangle;connectable=0;fillColor=none;top=0;left=0;bottom=0;right=0;editable=1;overflow=hidden;whiteSpace=wrap;html=1;" parent="yazkTJhVp-R8jj8HfO-j-74" vertex="1">
          <mxGeometry width="30" height="30" as="geometry">
            <mxRectangle width="30" height="30" as="alternateBounds" />
          </mxGeometry>
        </mxCell>
        <mxCell id="yazkTJhVp-R8jj8HfO-j-76" value="credits" style="shape=partialRectangle;connectable=0;fillColor=none;top=0;left=0;bottom=0;right=0;align=left;spacingLeft=6;overflow=hidden;whiteSpace=wrap;html=1;" parent="yazkTJhVp-R8jj8HfO-j-74" vertex="1">
          <mxGeometry x="30" width="120" height="30" as="geometry">
            <mxRectangle width="120" height="30" as="alternateBounds" />
          </mxGeometry>
        </mxCell>
        <mxCell id="yazkTJhVp-R8jj8HfO-j-77" style="shape=tableRow;horizontal=0;startSize=0;swimlaneHead=0;swimlaneBody=0;fillColor=none;collapsible=0;dropTarget=0;points=[[0,0.5],[1,0.5]];portConstraint=eastwest;top=0;left=0;right=0;bottom=0;" parent="yazkTJhVp-R8jj8HfO-j-64" vertex="1">
          <mxGeometry y="150" width="150" height="30" as="geometry" />
        </mxCell>
        <mxCell id="yazkTJhVp-R8jj8HfO-j-78" style="shape=partialRectangle;connectable=0;fillColor=none;top=0;left=0;bottom=0;right=0;editable=1;overflow=hidden;whiteSpace=wrap;html=1;" parent="yazkTJhVp-R8jj8HfO-j-77" vertex="1">
          <mxGeometry width="30" height="30" as="geometry">
            <mxRectangle width="30" height="30" as="alternateBounds" />
          </mxGeometry>
        </mxCell>
        <mxCell id="yazkTJhVp-R8jj8HfO-j-79" value="createdAt" style="shape=partialRectangle;connectable=0;fillColor=none;top=0;left=0;bottom=0;right=0;align=left;spacingLeft=6;overflow=hidden;whiteSpace=wrap;html=1;" parent="yazkTJhVp-R8jj8HfO-j-77" vertex="1">
          <mxGeometry x="30" width="120" height="30" as="geometry">
            <mxRectangle width="120" height="30" as="alternateBounds" />
          </mxGeometry>
        </mxCell>
        <mxCell id="yazkTJhVp-R8jj8HfO-j-80" style="shape=tableRow;horizontal=0;startSize=0;swimlaneHead=0;swimlaneBody=0;fillColor=none;collapsible=0;dropTarget=0;points=[[0,0.5],[1,0.5]];portConstraint=eastwest;top=0;left=0;right=0;bottom=0;" parent="yazkTJhVp-R8jj8HfO-j-64" vertex="1">
          <mxGeometry y="180" width="150" height="30" as="geometry" />
        </mxCell>
        <mxCell id="yazkTJhVp-R8jj8HfO-j-81" style="shape=partialRectangle;connectable=0;fillColor=none;top=0;left=0;bottom=0;right=0;editable=1;overflow=hidden;whiteSpace=wrap;html=1;" parent="yazkTJhVp-R8jj8HfO-j-80" vertex="1">
          <mxGeometry width="30" height="30" as="geometry">
            <mxRectangle width="30" height="30" as="alternateBounds" />
          </mxGeometry>
        </mxCell>
        <mxCell id="yazkTJhVp-R8jj8HfO-j-82" value="updatedAt" style="shape=partialRectangle;connectable=0;fillColor=none;top=0;left=0;bottom=0;right=0;align=left;spacingLeft=6;overflow=hidden;whiteSpace=wrap;html=1;" parent="yazkTJhVp-R8jj8HfO-j-80" vertex="1">
          <mxGeometry x="30" width="120" height="30" as="geometry">
            <mxRectangle width="120" height="30" as="alternateBounds" />
          </mxGeometry>
        </mxCell>
        <mxCell id="yazkTJhVp-R8jj8HfO-j-83" value="programs" style="shape=table;startSize=30;container=1;collapsible=1;childLayout=tableLayout;fixedRows=1;rowLines=0;fontStyle=1;align=center;resizeLast=1;html=1;" parent="1" vertex="1">
          <mxGeometry x="564.5" y="-1040" width="160.5" height="180" as="geometry" />
        </mxCell>
        <mxCell id="yazkTJhVp-R8jj8HfO-j-84" value="" style="shape=tableRow;horizontal=0;startSize=0;swimlaneHead=0;swimlaneBody=0;fillColor=none;collapsible=0;dropTarget=0;points=[[0,0.5],[1,0.5]];portConstraint=eastwest;top=0;left=0;right=0;bottom=1;" parent="yazkTJhVp-R8jj8HfO-j-83" vertex="1">
          <mxGeometry y="30" width="160.5" height="30" as="geometry" />
        </mxCell>
        <mxCell id="yazkTJhVp-R8jj8HfO-j-85" value="PK" style="shape=partialRectangle;connectable=0;fillColor=none;top=0;left=0;bottom=0;right=0;fontStyle=1;overflow=hidden;whiteSpace=wrap;html=1;" parent="yazkTJhVp-R8jj8HfO-j-84" vertex="1">
          <mxGeometry width="30" height="30" as="geometry">
            <mxRectangle width="30" height="30" as="alternateBounds" />
          </mxGeometry>
        </mxCell>
        <mxCell id="yazkTJhVp-R8jj8HfO-j-86" value="id" style="shape=partialRectangle;connectable=0;fillColor=none;top=0;left=0;bottom=0;right=0;align=left;spacingLeft=6;fontStyle=5;overflow=hidden;whiteSpace=wrap;html=1;" parent="yazkTJhVp-R8jj8HfO-j-84" vertex="1">
          <mxGeometry x="30" width="130.5" height="30" as="geometry">
            <mxRectangle width="130.5" height="30" as="alternateBounds" />
          </mxGeometry>
        </mxCell>
        <mxCell id="yazkTJhVp-R8jj8HfO-j-90" value="" style="shape=tableRow;horizontal=0;startSize=0;swimlaneHead=0;swimlaneBody=0;fillColor=none;collapsible=0;dropTarget=0;points=[[0,0.5],[1,0.5]];portConstraint=eastwest;top=0;left=0;right=0;bottom=0;" parent="yazkTJhVp-R8jj8HfO-j-83" vertex="1">
          <mxGeometry y="60" width="160.5" height="30" as="geometry" />
        </mxCell>
        <mxCell id="yazkTJhVp-R8jj8HfO-j-91" value="" style="shape=partialRectangle;connectable=0;fillColor=none;top=0;left=0;bottom=0;right=0;editable=1;overflow=hidden;whiteSpace=wrap;html=1;" parent="yazkTJhVp-R8jj8HfO-j-90" vertex="1">
          <mxGeometry width="30" height="30" as="geometry">
            <mxRectangle width="30" height="30" as="alternateBounds" />
          </mxGeometry>
        </mxCell>
        <mxCell id="yazkTJhVp-R8jj8HfO-j-92" value="name" style="shape=partialRectangle;connectable=0;fillColor=none;top=0;left=0;bottom=0;right=0;align=left;spacingLeft=6;overflow=hidden;whiteSpace=wrap;html=1;" parent="yazkTJhVp-R8jj8HfO-j-90" vertex="1">
          <mxGeometry x="30" width="130.5" height="30" as="geometry">
            <mxRectangle width="130.5" height="30" as="alternateBounds" />
          </mxGeometry>
        </mxCell>
        <mxCell id="yazkTJhVp-R8jj8HfO-j-93" value="" style="shape=tableRow;horizontal=0;startSize=0;swimlaneHead=0;swimlaneBody=0;fillColor=none;collapsible=0;dropTarget=0;points=[[0,0.5],[1,0.5]];portConstraint=eastwest;top=0;left=0;right=0;bottom=0;" parent="yazkTJhVp-R8jj8HfO-j-83" vertex="1">
          <mxGeometry y="90" width="160.5" height="30" as="geometry" />
        </mxCell>
        <mxCell id="yazkTJhVp-R8jj8HfO-j-94" value="" style="shape=partialRectangle;connectable=0;fillColor=none;top=0;left=0;bottom=0;right=0;editable=1;overflow=hidden;whiteSpace=wrap;html=1;" parent="yazkTJhVp-R8jj8HfO-j-93" vertex="1">
          <mxGeometry width="30" height="30" as="geometry">
            <mxRectangle width="30" height="30" as="alternateBounds" />
          </mxGeometry>
        </mxCell>
        <mxCell id="yazkTJhVp-R8jj8HfO-j-95" value="totalCredits" style="shape=partialRectangle;connectable=0;fillColor=none;top=0;left=0;bottom=0;right=0;align=left;spacingLeft=6;overflow=hidden;whiteSpace=wrap;html=1;" parent="yazkTJhVp-R8jj8HfO-j-93" vertex="1">
          <mxGeometry x="30" width="130.5" height="30" as="geometry">
            <mxRectangle width="130.5" height="30" as="alternateBounds" />
          </mxGeometry>
        </mxCell>
        <mxCell id="yazkTJhVp-R8jj8HfO-j-96" style="shape=tableRow;horizontal=0;startSize=0;swimlaneHead=0;swimlaneBody=0;fillColor=none;collapsible=0;dropTarget=0;points=[[0,0.5],[1,0.5]];portConstraint=eastwest;top=0;left=0;right=0;bottom=0;" parent="yazkTJhVp-R8jj8HfO-j-83" vertex="1">
          <mxGeometry y="120" width="160.5" height="30" as="geometry" />
        </mxCell>
        <mxCell id="yazkTJhVp-R8jj8HfO-j-97" style="shape=partialRectangle;connectable=0;fillColor=none;top=0;left=0;bottom=0;right=0;editable=1;overflow=hidden;whiteSpace=wrap;html=1;" parent="yazkTJhVp-R8jj8HfO-j-96" vertex="1">
          <mxGeometry width="30" height="30" as="geometry">
            <mxRectangle width="30" height="30" as="alternateBounds" />
          </mxGeometry>
        </mxCell>
        <mxCell id="yazkTJhVp-R8jj8HfO-j-98" value="createdAt" style="shape=partialRectangle;connectable=0;fillColor=none;top=0;left=0;bottom=0;right=0;align=left;spacingLeft=6;overflow=hidden;whiteSpace=wrap;html=1;" parent="yazkTJhVp-R8jj8HfO-j-96" vertex="1">
          <mxGeometry x="30" width="130.5" height="30" as="geometry">
            <mxRectangle width="130.5" height="30" as="alternateBounds" />
          </mxGeometry>
        </mxCell>
        <mxCell id="yazkTJhVp-R8jj8HfO-j-99" style="shape=tableRow;horizontal=0;startSize=0;swimlaneHead=0;swimlaneBody=0;fillColor=none;collapsible=0;dropTarget=0;points=[[0,0.5],[1,0.5]];portConstraint=eastwest;top=0;left=0;right=0;bottom=0;" parent="yazkTJhVp-R8jj8HfO-j-83" vertex="1">
          <mxGeometry y="150" width="160.5" height="30" as="geometry" />
        </mxCell>
        <mxCell id="yazkTJhVp-R8jj8HfO-j-100" style="shape=partialRectangle;connectable=0;fillColor=none;top=0;left=0;bottom=0;right=0;editable=1;overflow=hidden;whiteSpace=wrap;html=1;" parent="yazkTJhVp-R8jj8HfO-j-99" vertex="1">
          <mxGeometry width="30" height="30" as="geometry">
            <mxRectangle width="30" height="30" as="alternateBounds" />
          </mxGeometry>
        </mxCell>
        <mxCell id="yazkTJhVp-R8jj8HfO-j-101" value="updatedAt" style="shape=partialRectangle;connectable=0;fillColor=none;top=0;left=0;bottom=0;right=0;align=left;spacingLeft=6;overflow=hidden;whiteSpace=wrap;html=1;" parent="yazkTJhVp-R8jj8HfO-j-99" vertex="1">
          <mxGeometry x="30" width="130.5" height="30" as="geometry">
            <mxRectangle width="130.5" height="30" as="alternateBounds" />
          </mxGeometry>
        </mxCell>
        <mxCell id="yazkTJhVp-R8jj8HfO-j-121" value="" style="edgeStyle=elbowEdgeStyle;fontSize=12;html=1;endArrow=ERoneToMany;startArrow=ERmandOne;rounded=0;entryX=1;entryY=0.5;entryDx=0;entryDy=0;exitX=0.997;exitY=0.327;exitDx=0;exitDy=0;exitPerimeter=0;" parent="1" source="yazkTJhVp-R8jj8HfO-j-84" target="yazkTJhVp-R8jj8HfO-j-68" edge="1">
          <mxGeometry width="100" height="100" relative="1" as="geometry">
            <mxPoint x="725" y="-1000" as="sourcePoint" />
            <mxPoint x="498" y="-850" as="targetPoint" />
            <Array as="points">
              <mxPoint x="805" y="-610" />
            </Array>
          </mxGeometry>
        </mxCell>
        <mxCell id="yazkTJhVp-R8jj8HfO-j-154" value="" style="edgeStyle=elbowEdgeStyle;fontSize=12;html=1;endArrow=ERoneToMany;startArrow=ERmandOne;rounded=0;entryX=0;entryY=0.5;entryDx=0;entryDy=0;exitX=1;exitY=0.5;exitDx=0;exitDy=0;" parent="1" source="yazkTJhVp-R8jj8HfO-j-2" target="yazkTJhVp-R8jj8HfO-j-150" edge="1">
          <mxGeometry width="100" height="100" relative="1" as="geometry">
            <mxPoint x="493" y="-410" as="sourcePoint" />
            <mxPoint x="323" y="-355" as="targetPoint" />
            <Array as="points">
              <mxPoint x="515" y="-580" />
            </Array>
          </mxGeometry>
        </mxCell>
        <mxCell id="yazkTJhVp-R8jj8HfO-j-155" value="groups" style="shape=table;startSize=30;container=1;collapsible=1;childLayout=tableLayout;fixedRows=1;rowLines=0;fontStyle=1;align=center;resizeLast=1;html=1;" parent="1" vertex="1">
          <mxGeometry x="568" y="-490" width="157" height="180" as="geometry" />
        </mxCell>
        <mxCell id="yazkTJhVp-R8jj8HfO-j-156" value="" style="shape=tableRow;horizontal=0;startSize=0;swimlaneHead=0;swimlaneBody=0;fillColor=none;collapsible=0;dropTarget=0;points=[[0,0.5],[1,0.5]];portConstraint=eastwest;top=0;left=0;right=0;bottom=1;" parent="yazkTJhVp-R8jj8HfO-j-155" vertex="1">
          <mxGeometry y="30" width="157" height="30" as="geometry" />
        </mxCell>
        <mxCell id="yazkTJhVp-R8jj8HfO-j-157" value="PK" style="shape=partialRectangle;connectable=0;fillColor=none;top=0;left=0;bottom=0;right=0;fontStyle=1;overflow=hidden;whiteSpace=wrap;html=1;" parent="yazkTJhVp-R8jj8HfO-j-156" vertex="1">
          <mxGeometry width="30" height="30" as="geometry">
            <mxRectangle width="30" height="30" as="alternateBounds" />
          </mxGeometry>
        </mxCell>
        <mxCell id="yazkTJhVp-R8jj8HfO-j-158" value="id" style="shape=partialRectangle;connectable=0;fillColor=none;top=0;left=0;bottom=0;right=0;align=left;spacingLeft=6;fontStyle=5;overflow=hidden;whiteSpace=wrap;html=1;" parent="yazkTJhVp-R8jj8HfO-j-156" vertex="1">
          <mxGeometry x="30" width="127" height="30" as="geometry">
            <mxRectangle width="127" height="30" as="alternateBounds" />
          </mxGeometry>
        </mxCell>
        <mxCell id="yazkTJhVp-R8jj8HfO-j-159" value="" style="shape=tableRow;horizontal=0;startSize=0;swimlaneHead=0;swimlaneBody=0;fillColor=none;collapsible=0;dropTarget=0;points=[[0,0.5],[1,0.5]];portConstraint=eastwest;top=0;left=0;right=0;bottom=0;" parent="yazkTJhVp-R8jj8HfO-j-155" vertex="1">
          <mxGeometry y="60" width="157" height="30" as="geometry" />
        </mxCell>
        <mxCell id="yazkTJhVp-R8jj8HfO-j-160" value="" style="shape=partialRectangle;connectable=0;fillColor=none;top=0;left=0;bottom=0;right=0;editable=1;overflow=hidden;whiteSpace=wrap;html=1;" parent="yazkTJhVp-R8jj8HfO-j-159" vertex="1">
          <mxGeometry width="30" height="30" as="geometry">
            <mxRectangle width="30" height="30" as="alternateBounds" />
          </mxGeometry>
        </mxCell>
        <mxCell id="yazkTJhVp-R8jj8HfO-j-161" value="name" style="shape=partialRectangle;connectable=0;fillColor=none;top=0;left=0;bottom=0;right=0;align=left;spacingLeft=6;overflow=hidden;whiteSpace=wrap;html=1;" parent="yazkTJhVp-R8jj8HfO-j-159" vertex="1">
          <mxGeometry x="30" width="127" height="30" as="geometry">
            <mxRectangle width="127" height="30" as="alternateBounds" />
          </mxGeometry>
        </mxCell>
        <mxCell id="_ogGYtfBmzfV-9HcHeYj-37" style="shape=tableRow;horizontal=0;startSize=0;swimlaneHead=0;swimlaneBody=0;fillColor=none;collapsible=0;dropTarget=0;points=[[0,0.5],[1,0.5]];portConstraint=eastwest;top=0;left=0;right=0;bottom=0;" parent="yazkTJhVp-R8jj8HfO-j-155" vertex="1">
          <mxGeometry y="90" width="157" height="30" as="geometry" />
        </mxCell>
        <mxCell id="_ogGYtfBmzfV-9HcHeYj-38" value="&lt;b&gt;FK&lt;/b&gt;" style="shape=partialRectangle;connectable=0;fillColor=none;top=0;left=0;bottom=0;right=0;editable=1;overflow=hidden;whiteSpace=wrap;html=1;" parent="_ogGYtfBmzfV-9HcHeYj-37" vertex="1">
          <mxGeometry width="30" height="30" as="geometry">
            <mxRectangle width="30" height="30" as="alternateBounds" />
          </mxGeometry>
        </mxCell>
        <mxCell id="_ogGYtfBmzfV-9HcHeYj-39" value="programId" style="shape=partialRectangle;connectable=0;fillColor=none;top=0;left=0;bottom=0;right=0;align=left;spacingLeft=6;overflow=hidden;whiteSpace=wrap;html=1;" parent="_ogGYtfBmzfV-9HcHeYj-37" vertex="1">
          <mxGeometry x="30" width="127" height="30" as="geometry">
            <mxRectangle width="127" height="30" as="alternateBounds" />
          </mxGeometry>
        </mxCell>
        <mxCell id="yazkTJhVp-R8jj8HfO-j-162" style="shape=tableRow;horizontal=0;startSize=0;swimlaneHead=0;swimlaneBody=0;fillColor=none;collapsible=0;dropTarget=0;points=[[0,0.5],[1,0.5]];portConstraint=eastwest;top=0;left=0;right=0;bottom=0;" parent="yazkTJhVp-R8jj8HfO-j-155" vertex="1">
          <mxGeometry y="120" width="157" height="30" as="geometry" />
        </mxCell>
        <mxCell id="yazkTJhVp-R8jj8HfO-j-163" style="shape=partialRectangle;connectable=0;fillColor=none;top=0;left=0;bottom=0;right=0;editable=1;overflow=hidden;whiteSpace=wrap;html=1;" parent="yazkTJhVp-R8jj8HfO-j-162" vertex="1">
          <mxGeometry width="30" height="30" as="geometry">
            <mxRectangle width="30" height="30" as="alternateBounds" />
          </mxGeometry>
        </mxCell>
        <mxCell id="yazkTJhVp-R8jj8HfO-j-164" value="createdAt" style="shape=partialRectangle;connectable=0;fillColor=none;top=0;left=0;bottom=0;right=0;align=left;spacingLeft=6;overflow=hidden;whiteSpace=wrap;html=1;" parent="yazkTJhVp-R8jj8HfO-j-162" vertex="1">
          <mxGeometry x="30" width="127" height="30" as="geometry">
            <mxRectangle width="127" height="30" as="alternateBounds" />
          </mxGeometry>
        </mxCell>
        <mxCell id="yazkTJhVp-R8jj8HfO-j-165" style="shape=tableRow;horizontal=0;startSize=0;swimlaneHead=0;swimlaneBody=0;fillColor=none;collapsible=0;dropTarget=0;points=[[0,0.5],[1,0.5]];portConstraint=eastwest;top=0;left=0;right=0;bottom=0;" parent="yazkTJhVp-R8jj8HfO-j-155" vertex="1">
          <mxGeometry y="150" width="157" height="30" as="geometry" />
        </mxCell>
        <mxCell id="yazkTJhVp-R8jj8HfO-j-166" style="shape=partialRectangle;connectable=0;fillColor=none;top=0;left=0;bottom=0;right=0;editable=1;overflow=hidden;whiteSpace=wrap;html=1;" parent="yazkTJhVp-R8jj8HfO-j-165" vertex="1">
          <mxGeometry width="30" height="30" as="geometry">
            <mxRectangle width="30" height="30" as="alternateBounds" />
          </mxGeometry>
        </mxCell>
        <mxCell id="yazkTJhVp-R8jj8HfO-j-167" value="updatedAt" style="shape=partialRectangle;connectable=0;fillColor=none;top=0;left=0;bottom=0;right=0;align=left;spacingLeft=6;overflow=hidden;whiteSpace=wrap;html=1;" parent="yazkTJhVp-R8jj8HfO-j-165" vertex="1">
          <mxGeometry x="30" width="127" height="30" as="geometry">
            <mxRectangle width="127" height="30" as="alternateBounds" />
          </mxGeometry>
        </mxCell>
        <mxCell id="yazkTJhVp-R8jj8HfO-j-168" value="attendances" style="shape=table;startSize=30;container=1;collapsible=1;childLayout=tableLayout;fixedRows=1;rowLines=0;fontStyle=1;align=center;resizeLast=1;html=1;" parent="1" vertex="1">
          <mxGeometry x="25" y="-607" width="180" height="150" as="geometry" />
        </mxCell>
        <mxCell id="yazkTJhVp-R8jj8HfO-j-169" value="" style="shape=tableRow;horizontal=0;startSize=0;swimlaneHead=0;swimlaneBody=0;fillColor=none;collapsible=0;dropTarget=0;points=[[0,0.5],[1,0.5]];portConstraint=eastwest;top=0;left=0;right=0;bottom=1;" parent="yazkTJhVp-R8jj8HfO-j-168" vertex="1">
          <mxGeometry y="30" width="180" height="30" as="geometry" />
        </mxCell>
        <mxCell id="yazkTJhVp-R8jj8HfO-j-170" value="PK" style="shape=partialRectangle;connectable=0;fillColor=none;top=0;left=0;bottom=0;right=0;fontStyle=1;overflow=hidden;whiteSpace=wrap;html=1;" parent="yazkTJhVp-R8jj8HfO-j-169" vertex="1">
          <mxGeometry width="30" height="30" as="geometry">
            <mxRectangle width="30" height="30" as="alternateBounds" />
          </mxGeometry>
        </mxCell>
        <mxCell id="yazkTJhVp-R8jj8HfO-j-171" value="id" style="shape=partialRectangle;connectable=0;fillColor=none;top=0;left=0;bottom=0;right=0;align=left;spacingLeft=6;fontStyle=5;overflow=hidden;whiteSpace=wrap;html=1;" parent="yazkTJhVp-R8jj8HfO-j-169" vertex="1">
          <mxGeometry x="30" width="150" height="30" as="geometry">
            <mxRectangle width="150" height="30" as="alternateBounds" />
          </mxGeometry>
        </mxCell>
        <mxCell id="yazkTJhVp-R8jj8HfO-j-172" value="" style="shape=tableRow;horizontal=0;startSize=0;swimlaneHead=0;swimlaneBody=0;fillColor=none;collapsible=0;dropTarget=0;points=[[0,0.5],[1,0.5]];portConstraint=eastwest;top=0;left=0;right=0;bottom=0;" parent="yazkTJhVp-R8jj8HfO-j-168" vertex="1">
          <mxGeometry y="60" width="180" height="30" as="geometry" />
        </mxCell>
        <mxCell id="yazkTJhVp-R8jj8HfO-j-173" value="&lt;b&gt;FK&lt;/b&gt;" style="shape=partialRectangle;connectable=0;fillColor=none;top=0;left=0;bottom=0;right=0;editable=1;overflow=hidden;whiteSpace=wrap;html=1;" parent="yazkTJhVp-R8jj8HfO-j-172" vertex="1">
          <mxGeometry width="30" height="30" as="geometry">
            <mxRectangle width="30" height="30" as="alternateBounds" />
          </mxGeometry>
        </mxCell>
        <mxCell id="yazkTJhVp-R8jj8HfO-j-174" value="userId" style="shape=partialRectangle;connectable=0;fillColor=none;top=0;left=0;bottom=0;right=0;align=left;spacingLeft=6;overflow=hidden;whiteSpace=wrap;html=1;" parent="yazkTJhVp-R8jj8HfO-j-172" vertex="1">
          <mxGeometry x="30" width="150" height="30" as="geometry">
            <mxRectangle width="150" height="30" as="alternateBounds" />
          </mxGeometry>
        </mxCell>
        <mxCell id="yazkTJhVp-R8jj8HfO-j-175" value="" style="shape=tableRow;horizontal=0;startSize=0;swimlaneHead=0;swimlaneBody=0;fillColor=none;collapsible=0;dropTarget=0;points=[[0,0.5],[1,0.5]];portConstraint=eastwest;top=0;left=0;right=0;bottom=0;" parent="yazkTJhVp-R8jj8HfO-j-168" vertex="1">
          <mxGeometry y="90" width="180" height="30" as="geometry" />
        </mxCell>
        <mxCell id="yazkTJhVp-R8jj8HfO-j-176" value="" style="shape=partialRectangle;connectable=0;fillColor=none;top=0;left=0;bottom=0;right=0;editable=1;overflow=hidden;whiteSpace=wrap;html=1;" parent="yazkTJhVp-R8jj8HfO-j-175" vertex="1">
          <mxGeometry width="30" height="30" as="geometry">
            <mxRectangle width="30" height="30" as="alternateBounds" />
          </mxGeometry>
        </mxCell>
        <mxCell id="yazkTJhVp-R8jj8HfO-j-177" value="createdAt" style="shape=partialRectangle;connectable=0;fillColor=none;top=0;left=0;bottom=0;right=0;align=left;spacingLeft=6;overflow=hidden;whiteSpace=wrap;html=1;" parent="yazkTJhVp-R8jj8HfO-j-175" vertex="1">
          <mxGeometry x="30" width="150" height="30" as="geometry">
            <mxRectangle width="150" height="30" as="alternateBounds" />
          </mxGeometry>
        </mxCell>
        <mxCell id="yazkTJhVp-R8jj8HfO-j-178" style="shape=tableRow;horizontal=0;startSize=0;swimlaneHead=0;swimlaneBody=0;fillColor=none;collapsible=0;dropTarget=0;points=[[0,0.5],[1,0.5]];portConstraint=eastwest;top=0;left=0;right=0;bottom=0;" parent="yazkTJhVp-R8jj8HfO-j-168" vertex="1">
          <mxGeometry y="120" width="180" height="30" as="geometry" />
        </mxCell>
        <mxCell id="yazkTJhVp-R8jj8HfO-j-179" style="shape=partialRectangle;connectable=0;fillColor=none;top=0;left=0;bottom=0;right=0;editable=1;overflow=hidden;whiteSpace=wrap;html=1;" parent="yazkTJhVp-R8jj8HfO-j-178" vertex="1">
          <mxGeometry width="30" height="30" as="geometry">
            <mxRectangle width="30" height="30" as="alternateBounds" />
          </mxGeometry>
        </mxCell>
        <mxCell id="yazkTJhVp-R8jj8HfO-j-180" value="updatedAt" style="shape=partialRectangle;connectable=0;fillColor=none;top=0;left=0;bottom=0;right=0;align=left;spacingLeft=6;overflow=hidden;whiteSpace=wrap;html=1;" parent="yazkTJhVp-R8jj8HfO-j-178" vertex="1">
          <mxGeometry x="30" width="150" height="30" as="geometry">
            <mxRectangle width="150" height="30" as="alternateBounds" />
          </mxGeometry>
        </mxCell>
        <mxCell id="yazkTJhVp-R8jj8HfO-j-140" value="" style="edgeStyle=elbowEdgeStyle;fontSize=12;html=1;endArrow=ERoneToMany;startArrow=ERmandOne;rounded=0;entryX=1;entryY=0.5;entryDx=0;entryDy=0;exitX=0;exitY=0.66;exitDx=0;exitDy=0;exitPerimeter=0;" parent="1" source="yazkTJhVp-R8jj8HfO-j-156" target="yazkTJhVp-R8jj8HfO-j-118" edge="1">
          <mxGeometry width="100" height="100" relative="1" as="geometry">
            <mxPoint x="543" y="-260" as="sourcePoint" />
            <mxPoint x="623" y="-400" as="targetPoint" />
            <Array as="points">
              <mxPoint x="538" y="-330" />
            </Array>
          </mxGeometry>
        </mxCell>
        <mxCell id="yazkTJhVp-R8jj8HfO-j-139" value="" style="fontSize=12;html=1;endArrow=ERoneToMany;startArrow=ERmandOne;rounded=0;entryX=1;entryY=0.5;entryDx=0;entryDy=0;exitX=-0.001;exitY=0.594;exitDx=0;exitDy=0;exitPerimeter=0;" parent="1" target="yazkTJhVp-R8jj8HfO-j-172" edge="1" source="yazkTJhVp-R8jj8HfO-j-2">
          <mxGeometry width="100" height="100" relative="1" as="geometry">
            <mxPoint x="288" y="-485" as="sourcePoint" />
            <mxPoint x="798" y="-150" as="targetPoint" />
          </mxGeometry>
        </mxCell>
        <mxCell id="yazkTJhVp-R8jj8HfO-j-181" value="" style="edgeStyle=elbowEdgeStyle;fontSize=12;html=1;endArrow=ERoneToMany;startArrow=ERmandOne;rounded=0;entryX=0;entryY=0.5;entryDx=0;entryDy=0;exitX=0.001;exitY=0.34;exitDx=0;exitDy=0;exitPerimeter=0;" parent="1" source="yazkTJhVp-R8jj8HfO-j-156" target="yazkTJhVp-R8jj8HfO-j-147" edge="1">
          <mxGeometry width="100" height="100" relative="1" as="geometry">
            <mxPoint x="618" y="-430" as="sourcePoint" />
            <mxPoint x="478" y="-265" as="targetPoint" />
            <Array as="points">
              <mxPoint x="538" y="-530" />
            </Array>
          </mxGeometry>
        </mxCell>
        <mxCell id="yazkTJhVp-R8jj8HfO-j-182" value="" style="endArrow=none;html=1;rounded=0;" parent="1" edge="1">
          <mxGeometry width="50" height="50" relative="1" as="geometry">
            <mxPoint x="5" y="-1080" as="sourcePoint" />
            <mxPoint x="835" y="-1080" as="targetPoint" />
          </mxGeometry>
        </mxCell>
        <mxCell id="yazkTJhVp-R8jj8HfO-j-183" value="" style="endArrow=none;html=1;rounded=0;" parent="1" edge="1">
          <mxGeometry width="50" height="50" relative="1" as="geometry">
            <mxPoint x="5" y="-40" as="sourcePoint" />
            <mxPoint x="845" y="-40" as="targetPoint" />
          </mxGeometry>
        </mxCell>
        <mxCell id="_ogGYtfBmzfV-9HcHeYj-4" value="accessTokens" style="shape=table;startSize=30;container=1;collapsible=1;childLayout=tableLayout;fixedRows=1;rowLines=0;fontStyle=1;align=center;resizeLast=1;html=1;" parent="1" vertex="1">
          <mxGeometry x="289" y="-820" width="180" height="200" as="geometry" />
        </mxCell>
        <mxCell id="_ogGYtfBmzfV-9HcHeYj-5" value="" style="shape=tableRow;horizontal=0;startSize=0;swimlaneHead=0;swimlaneBody=0;fillColor=none;collapsible=0;dropTarget=0;points=[[0,0.5],[1,0.5]];portConstraint=eastwest;top=0;left=0;right=0;bottom=1;" parent="_ogGYtfBmzfV-9HcHeYj-4" vertex="1">
          <mxGeometry y="30" width="180" height="20" as="geometry" />
        </mxCell>
        <mxCell id="_ogGYtfBmzfV-9HcHeYj-6" value="PK" style="shape=partialRectangle;connectable=0;fillColor=none;top=0;left=0;bottom=0;right=0;fontStyle=1;overflow=hidden;whiteSpace=wrap;html=1;" parent="_ogGYtfBmzfV-9HcHeYj-5" vertex="1">
          <mxGeometry width="30" height="20" as="geometry">
            <mxRectangle width="30" height="20" as="alternateBounds" />
          </mxGeometry>
        </mxCell>
        <mxCell id="_ogGYtfBmzfV-9HcHeYj-7" value="id" style="shape=partialRectangle;connectable=0;fillColor=none;top=0;left=0;bottom=0;right=0;align=left;spacingLeft=6;fontStyle=5;overflow=hidden;whiteSpace=wrap;html=1;" parent="_ogGYtfBmzfV-9HcHeYj-5" vertex="1">
          <mxGeometry x="30" width="150" height="20" as="geometry">
            <mxRectangle width="150" height="20" as="alternateBounds" />
          </mxGeometry>
        </mxCell>
        <mxCell id="_ogGYtfBmzfV-9HcHeYj-8" value="" style="shape=tableRow;horizontal=0;startSize=0;swimlaneHead=0;swimlaneBody=0;fillColor=none;collapsible=0;dropTarget=0;points=[[0,0.5],[1,0.5]];portConstraint=eastwest;top=0;left=0;right=0;bottom=0;" parent="_ogGYtfBmzfV-9HcHeYj-4" vertex="1">
          <mxGeometry y="50" width="180" height="30" as="geometry" />
        </mxCell>
        <mxCell id="_ogGYtfBmzfV-9HcHeYj-9" value="&lt;b&gt;FK&lt;/b&gt;" style="shape=partialRectangle;connectable=0;fillColor=none;top=0;left=0;bottom=0;right=0;editable=1;overflow=hidden;whiteSpace=wrap;html=1;" parent="_ogGYtfBmzfV-9HcHeYj-8" vertex="1">
          <mxGeometry width="30" height="30" as="geometry">
            <mxRectangle width="30" height="30" as="alternateBounds" />
          </mxGeometry>
        </mxCell>
        <mxCell id="_ogGYtfBmzfV-9HcHeYj-10" value="userId" style="shape=partialRectangle;connectable=0;fillColor=none;top=0;left=0;bottom=0;right=0;align=left;spacingLeft=6;overflow=hidden;whiteSpace=wrap;html=1;" parent="_ogGYtfBmzfV-9HcHeYj-8" vertex="1">
          <mxGeometry x="30" width="150" height="30" as="geometry">
            <mxRectangle width="150" height="30" as="alternateBounds" />
          </mxGeometry>
        </mxCell>
        <mxCell id="_ogGYtfBmzfV-9HcHeYj-25" style="shape=tableRow;horizontal=0;startSize=0;swimlaneHead=0;swimlaneBody=0;fillColor=none;collapsible=0;dropTarget=0;points=[[0,0.5],[1,0.5]];portConstraint=eastwest;top=0;left=0;right=0;bottom=0;" parent="_ogGYtfBmzfV-9HcHeYj-4" vertex="1">
          <mxGeometry y="80" width="180" height="30" as="geometry" />
        </mxCell>
        <mxCell id="_ogGYtfBmzfV-9HcHeYj-26" style="shape=partialRectangle;connectable=0;fillColor=none;top=0;left=0;bottom=0;right=0;editable=1;overflow=hidden;whiteSpace=wrap;html=1;" parent="_ogGYtfBmzfV-9HcHeYj-25" vertex="1">
          <mxGeometry width="30" height="30" as="geometry">
            <mxRectangle width="30" height="30" as="alternateBounds" />
          </mxGeometry>
        </mxCell>
        <mxCell id="_ogGYtfBmzfV-9HcHeYj-27" value="accessToken" style="shape=partialRectangle;connectable=0;fillColor=none;top=0;left=0;bottom=0;right=0;align=left;spacingLeft=6;overflow=hidden;whiteSpace=wrap;html=1;" parent="_ogGYtfBmzfV-9HcHeYj-25" vertex="1">
          <mxGeometry x="30" width="150" height="30" as="geometry">
            <mxRectangle width="150" height="30" as="alternateBounds" />
          </mxGeometry>
        </mxCell>
        <mxCell id="_ogGYtfBmzfV-9HcHeYj-11" value="" style="shape=tableRow;horizontal=0;startSize=0;swimlaneHead=0;swimlaneBody=0;fillColor=none;collapsible=0;dropTarget=0;points=[[0,0.5],[1,0.5]];portConstraint=eastwest;top=0;left=0;right=0;bottom=0;" parent="_ogGYtfBmzfV-9HcHeYj-4" vertex="1">
          <mxGeometry y="110" width="180" height="30" as="geometry" />
        </mxCell>
        <mxCell id="_ogGYtfBmzfV-9HcHeYj-12" value="" style="shape=partialRectangle;connectable=0;fillColor=none;top=0;left=0;bottom=0;right=0;editable=1;overflow=hidden;whiteSpace=wrap;html=1;" parent="_ogGYtfBmzfV-9HcHeYj-11" vertex="1">
          <mxGeometry width="30" height="30" as="geometry">
            <mxRectangle width="30" height="30" as="alternateBounds" />
          </mxGeometry>
        </mxCell>
        <mxCell id="_ogGYtfBmzfV-9HcHeYj-13" value="ip" style="shape=partialRectangle;connectable=0;fillColor=none;top=0;left=0;bottom=0;right=0;align=left;spacingLeft=6;overflow=hidden;whiteSpace=wrap;html=1;" parent="_ogGYtfBmzfV-9HcHeYj-11" vertex="1">
          <mxGeometry x="30" width="150" height="30" as="geometry">
            <mxRectangle width="150" height="30" as="alternateBounds" />
          </mxGeometry>
        </mxCell>
        <mxCell id="_ogGYtfBmzfV-9HcHeYj-14" style="shape=tableRow;horizontal=0;startSize=0;swimlaneHead=0;swimlaneBody=0;fillColor=none;collapsible=0;dropTarget=0;points=[[0,0.5],[1,0.5]];portConstraint=eastwest;top=0;left=0;right=0;bottom=0;" parent="_ogGYtfBmzfV-9HcHeYj-4" vertex="1">
          <mxGeometry y="140" width="180" height="30" as="geometry" />
        </mxCell>
        <mxCell id="_ogGYtfBmzfV-9HcHeYj-15" style="shape=partialRectangle;connectable=0;fillColor=none;top=0;left=0;bottom=0;right=0;editable=1;overflow=hidden;whiteSpace=wrap;html=1;" parent="_ogGYtfBmzfV-9HcHeYj-14" vertex="1">
          <mxGeometry width="30" height="30" as="geometry">
            <mxRectangle width="30" height="30" as="alternateBounds" />
          </mxGeometry>
        </mxCell>
        <mxCell id="_ogGYtfBmzfV-9HcHeYj-16" value="createdAt" style="shape=partialRectangle;connectable=0;fillColor=none;top=0;left=0;bottom=0;right=0;align=left;spacingLeft=6;overflow=hidden;whiteSpace=wrap;html=1;" parent="_ogGYtfBmzfV-9HcHeYj-14" vertex="1">
          <mxGeometry x="30" width="150" height="30" as="geometry">
            <mxRectangle width="150" height="30" as="alternateBounds" />
          </mxGeometry>
        </mxCell>
        <mxCell id="_ogGYtfBmzfV-9HcHeYj-22" style="shape=tableRow;horizontal=0;startSize=0;swimlaneHead=0;swimlaneBody=0;fillColor=none;collapsible=0;dropTarget=0;points=[[0,0.5],[1,0.5]];portConstraint=eastwest;top=0;left=0;right=0;bottom=0;" parent="_ogGYtfBmzfV-9HcHeYj-4" vertex="1">
          <mxGeometry y="170" width="180" height="30" as="geometry" />
        </mxCell>
        <mxCell id="_ogGYtfBmzfV-9HcHeYj-23" style="shape=partialRectangle;connectable=0;fillColor=none;top=0;left=0;bottom=0;right=0;editable=1;overflow=hidden;whiteSpace=wrap;html=1;" parent="_ogGYtfBmzfV-9HcHeYj-22" vertex="1">
          <mxGeometry width="30" height="30" as="geometry">
            <mxRectangle width="30" height="30" as="alternateBounds" />
          </mxGeometry>
        </mxCell>
        <mxCell id="_ogGYtfBmzfV-9HcHeYj-24" value="updatedAt" style="shape=partialRectangle;connectable=0;fillColor=none;top=0;left=0;bottom=0;right=0;align=left;spacingLeft=6;overflow=hidden;whiteSpace=wrap;html=1;" parent="_ogGYtfBmzfV-9HcHeYj-22" vertex="1">
          <mxGeometry x="30" width="150" height="30" as="geometry">
            <mxRectangle width="150" height="30" as="alternateBounds" />
          </mxGeometry>
        </mxCell>
        <mxCell id="_ogGYtfBmzfV-9HcHeYj-17" value="" style="fontSize=12;html=1;endArrow=ERoneToMany;startArrow=ERmandOne;rounded=0;entryX=0;entryY=0.5;entryDx=0;entryDy=0;edgeStyle=elbowEdgeStyle;exitX=-0.001;exitY=0.245;exitDx=0;exitDy=0;exitPerimeter=0;" parent="1" source="yazkTJhVp-R8jj8HfO-j-2" target="_ogGYtfBmzfV-9HcHeYj-8" edge="1">
          <mxGeometry width="100" height="100" relative="1" as="geometry">
            <mxPoint x="278" y="-480" as="sourcePoint" />
            <mxPoint x="198" y="-475" as="targetPoint" />
            <Array as="points">
              <mxPoint x="245" y="-640" />
            </Array>
          </mxGeometry>
        </mxCell>
        <mxCell id="_ogGYtfBmzfV-9HcHeYj-40" value="" style="edgeStyle=elbowEdgeStyle;fontSize=12;html=1;endArrow=ERoneToMany;startArrow=ERmandOne;rounded=0;entryX=1;entryY=0.5;entryDx=0;entryDy=0;exitX=1;exitY=0.774;exitDx=0;exitDy=0;exitPerimeter=0;" parent="1" source="yazkTJhVp-R8jj8HfO-j-84" target="_ogGYtfBmzfV-9HcHeYj-37" edge="1">
          <mxGeometry width="100" height="100" relative="1" as="geometry">
            <mxPoint x="725" y="-980" as="sourcePoint" />
            <mxPoint x="818" y="-400" as="targetPoint" />
            <Array as="points">
              <mxPoint x="765" y="-680" />
            </Array>
          </mxGeometry>
        </mxCell>
        <mxCell id="er9iYGzfPaZmdrmK8T5j-4" value="" style="edgeStyle=elbowEdgeStyle;fontSize=12;html=1;endArrow=ERoneToMany;startArrow=ERmandOne;rounded=0;exitX=0;exitY=0.5;exitDx=0;exitDy=0;entryX=1;entryY=0.5;entryDx=0;entryDy=0;" edge="1" parent="1" source="yazkTJhVp-R8jj8HfO-j-65" target="er9iYGzfPaZmdrmK8T5j-1">
          <mxGeometry width="100" height="100" relative="1" as="geometry">
            <mxPoint x="378" y="-630" as="sourcePoint" />
            <mxPoint x="478" y="-730" as="targetPoint" />
            <Array as="points">
              <mxPoint x="508" y="-240" />
            </Array>
          </mxGeometry>
        </mxCell>
      </root>
    </mxGraphModel>
  </diagram>
</mxfile>
